<svg id="visual" viewBox="0 0 900 600" width="900" height="600" xmlns="http://www.w3.org/2000/svg" xmlns:xlink="http://www.w3.org/1999/xlink" version="1.1"><rect x="0" y="0" width="900" height="600" fill="#FFFFFF"></rect><path d="M0 132L100 132L100 146L200 146L200 95L300 95L300 111L400 111L400 89L500 89L500 152L600 152L600 72L700 72L700 140L800 140L800 153L900 153L900 82L900 601L900 601L800 601L800 601L700 601L700 601L600 601L600 601L500 601L500 601L400 601L400 601L300 601L300 601L200 601L200 601L100 601L100 601L0 601Z" fill="#4eacc8"></path><path d="M0 191L100 191L100 160L200 160L200 170L300 170L300 155L400 155L400 182L500 182L500 199L600 199L600 196L700 196L700 199L800 199L800 154L900 154L900 205L900 601L900 601L800 601L800 601L700 601L700 601L600 601L600 601L500 601L500 601L400 601L400 601L300 601L300 601L200 601L200 601L100 601L100 601L0 601Z" fill="#42a4c2"></path><path d="M0 202L100 202L100 188L200 188L200 236L300 236L300 233L400 233L400 223L500 223L500 225L600 225L600 207L700 207L700 195L800 195L800 241L900 241L900 206L900 601L900 601L800 601L800 601L700 601L700 601L600 601L600 601L500 601L500 601L400 601L400 601L300 601L300 601L200 601L200 601L100 601L100 601L0 601Z" fill="#349dbb"></path><path d="M0 274L100 274L100 251L200 251L200 248L300 248L300 245L400 245L400 280L500 280L500 269L600 269L600 296L700 296L700 281L800 281L800 307L900 307L900 256L900 601L900 601L800 601L800 601L700 601L700 601L600 601L600 601L500 601L500 601L400 601L400 601L300 601L300 601L200 601L200 601L100 601L100 601L0 601Z" fill="#2495b5"></path><path d="M0 357L100 357L100 343L200 343L200 319L300 319L300 364L400 364L400 324L500 324L500 341L600 341L600 291L700 291L700 313L800 313L800 346L900 346L900 304L900 601L900 601L800 601L800 601L700 601L700 601L600 601L600 601L500 601L500 601L400 601L400 601L300 601L300 601L200 601L200 601L100 601L100 601L0 601Z" fill="#088eaf"></path><path d="M0 407L100 407L100 361L200 361L200 378L300 378L300 406L400 406L400 395L500 395L500 405L600 405L600 369L700 369L700 407L800 407L800 370L900 370L900 412L900 601L900 601L800 601L800 601L700 601L700 601L600 601L600 601L500 601L500 601L400 601L400 601L300 601L300 601L200 601L200 601L100 601L100 601L0 601Z" fill="#0784a3"></path><path d="M0 434L100 434L100 400L200 400L200 409L300 409L300 439L400 439L400 441L500 441L500 412L600 412L600 416L700 416L700 409L800 409L800 460L900 460L900 427L900 601L900 601L800 601L800 601L700 601L700 601L600 601L600 601L500 601L500 601L400 601L400 601L300 601L300 601L200 601L200 601L100 601L100 601L0 601Z" fill="#067b97"></path><path d="M0 501L100 501L100 450L200 450L200 495L300 495L300 511L400 511L400 485L500 485L500 486L600 486L600 500L700 500L700 496L800 496L800 480L900 480L900 483L900 601L900 601L800 601L800 601L700 601L700 601L600 601L600 601L500 601L500 601L400 601L400 601L300 601L300 601L200 601L200 601L100 601L100 601L0 601Z" fill="#06718b"></path><path d="M0 504L100 504L100 516L200 516L200 522L300 522L300 527L400 527L400 539L500 539L500 569L600 569L600 531L700 531L700 580L800 580L800 586L900 586L900 563L900 601L900 601L800 601L800 601L700 601L700 601L600 601L600 601L500 601L500 601L400 601L400 601L300 601L300 601L200 601L200 601L100 601L100 601L0 601Z" fill="#056880"></path></svg>