<svg id="visual" viewBox="0 0 900 600" width="900" height="600" xmlns="http://www.w3.org/2000/svg" xmlns:xlink="http://www.w3.org/1999/xlink" version="1.1"><g stroke-width="1" stroke-linejoin="bevel"><path d="M452 316L470 307L461 272Z" fill="#f5fdff" stroke="#f5fdff"></path><path d="M461 272L436 245L452 316Z" fill="#b1eeff" stroke="#b1eeff"></path><path d="M429 214L423 228L436 245Z" fill="#eafaff" stroke="#eafaff"></path><path d="M436 245L369 266L452 316Z" fill="#87e7ff" stroke="#87e7ff"></path><path d="M322 350L454 373L452 316Z" fill="#a4ecff" stroke="#a4ecff"></path><path d="M452 316L454 373L470 307Z" fill="#87e7ff" stroke="#87e7ff"></path><path d="M461 272L429 214L436 245Z" fill="#eafaff" stroke="#eafaff"></path><path d="M454 373L520 340L470 307Z" fill="#c9f3ff" stroke="#c9f3ff"></path><path d="M470 307L565 221L461 272Z" fill="#96e9ff" stroke="#96e9ff"></path><path d="M461 272L565 221L429 214Z" fill="#f5fdff" stroke="#f5fdff"></path><path d="M404 170L369 266L423 228Z" fill="#a4ecff" stroke="#a4ecff"></path><path d="M423 228L369 266L436 245Z" fill="#96e9ff" stroke="#96e9ff"></path><path d="M454 373L529 383L520 340Z" fill="#87e7ff" stroke="#87e7ff"></path><path d="M323 370L451 418L454 373Z" fill="#ffffff" stroke="#ffffff"></path><path d="M454 373L451 418L529 383Z" fill="#eafaff" stroke="#eafaff"></path><path d="M451 418L537 393L529 383Z" fill="#d4f5ff" stroke="#d4f5ff"></path><path d="M603 383L587 304L520 340Z" fill="#ffffff" stroke="#ffffff"></path><path d="M429 118L404 170L429 214Z" fill="#dff8ff" stroke="#dff8ff"></path><path d="M429 214L404 170L423 228Z" fill="#dff8ff" stroke="#dff8ff"></path><path d="M587 304L565 221L520 340Z" fill="#c9f3ff" stroke="#c9f3ff"></path><path d="M520 340L565 221L470 307Z" fill="#ffffff" stroke="#ffffff"></path><path d="M603 383L520 340L529 383Z" fill="#eafaff" stroke="#eafaff"></path><path d="M319 343L322 350L369 266Z" fill="#ffffff" stroke="#ffffff"></path><path d="M369 266L322 350L452 316Z" fill="#f5fdff" stroke="#f5fdff"></path><path d="M284 335L319 343L273 320Z" fill="#eafaff" stroke="#eafaff"></path><path d="M299 377L323 370L322 350Z" fill="#d4f5ff" stroke="#d4f5ff"></path><path d="M322 350L323 370L454 373Z" fill="#ffffff" stroke="#ffffff"></path><path d="M451 418L545 418L537 393Z" fill="#f5fdff" stroke="#f5fdff"></path><path d="M537 393L603 383L529 383Z" fill="#87e7ff" stroke="#87e7ff"></path><path d="M693 342L608 262L587 304Z" fill="#bdf1ff" stroke="#bdf1ff"></path><path d="M587 304L608 262L565 221Z" fill="#b1eeff" stroke="#b1eeff"></path><path d="M393 127L376 151L404 170Z" fill="#ffffff" stroke="#ffffff"></path><path d="M404 170L376 151L369 266Z" fill="#bdf1ff" stroke="#bdf1ff"></path><path d="M628 154L553 166L565 221Z" fill="#a4ecff" stroke="#a4ecff"></path><path d="M565 221L553 166L429 214Z" fill="#eafaff" stroke="#eafaff"></path><path d="M273 320L319 343L369 266Z" fill="#f5fdff" stroke="#f5fdff"></path><path d="M319 343L299 377L322 350Z" fill="#d4f5ff" stroke="#d4f5ff"></path><path d="M284 335L299 377L319 343Z" fill="#dff8ff" stroke="#dff8ff"></path><path d="M333 453L438 475L451 418Z" fill="#87e7ff" stroke="#87e7ff"></path><path d="M579 427L603 383L537 393Z" fill="#c9f3ff" stroke="#c9f3ff"></path><path d="M429 118L393 127L404 170Z" fill="#87e7ff" stroke="#87e7ff"></path><path d="M580 133L552 148L553 166Z" fill="#c9f3ff" stroke="#c9f3ff"></path><path d="M553 166L429 118L429 214Z" fill="#d4f5ff" stroke="#d4f5ff"></path><path d="M552 148L429 118L553 166Z" fill="#f5fdff" stroke="#f5fdff"></path><path d="M273 222L273 320L369 266Z" fill="#f5fdff" stroke="#f5fdff"></path><path d="M185 378L292 407L299 377Z" fill="#b1eeff" stroke="#b1eeff"></path><path d="M333 453L451 418L323 370Z" fill="#ffffff" stroke="#ffffff"></path><path d="M451 418L495 476L545 418Z" fill="#bdf1ff" stroke="#bdf1ff"></path><path d="M545 418L579 427L537 393Z" fill="#87e7ff" stroke="#87e7ff"></path><path d="M568 518L579 427L545 418Z" fill="#c9f3ff" stroke="#c9f3ff"></path><path d="M438 475L495 476L451 418Z" fill="#eafaff" stroke="#eafaff"></path><path d="M281 155L273 222L376 151Z" fill="#dff8ff" stroke="#dff8ff"></path><path d="M376 151L273 222L369 266Z" fill="#96e9ff" stroke="#96e9ff"></path><path d="M185 378L299 377L284 335Z" fill="#eafaff" stroke="#eafaff"></path><path d="M299 377L292 407L323 370Z" fill="#d4f5ff" stroke="#d4f5ff"></path><path d="M691 223L634 219L608 262Z" fill="#87e7ff" stroke="#87e7ff"></path><path d="M608 262L634 219L565 221Z" fill="#87e7ff" stroke="#87e7ff"></path><path d="M579 427L614 407L603 383Z" fill="#bdf1ff" stroke="#bdf1ff"></path><path d="M603 383L693 342L587 304Z" fill="#96e9ff" stroke="#96e9ff"></path><path d="M648 438L614 407L579 427Z" fill="#96e9ff" stroke="#96e9ff"></path><path d="M292 407L333 453L323 370Z" fill="#dff8ff" stroke="#dff8ff"></path><path d="M273 222L249 287L273 320Z" fill="#ffffff" stroke="#ffffff"></path><path d="M273 320L213 318L284 335Z" fill="#d4f5ff" stroke="#d4f5ff"></path><path d="M352 502L429 496L438 475Z" fill="#c9f3ff" stroke="#c9f3ff"></path><path d="M438 475L461 508L495 476Z" fill="#b1eeff" stroke="#b1eeff"></path><path d="M628 154L580 133L553 166Z" fill="#dff8ff" stroke="#dff8ff"></path><path d="M552 148L533 103L429 118Z" fill="#d4f5ff" stroke="#d4f5ff"></path><path d="M580 133L533 103L552 148Z" fill="#dff8ff" stroke="#dff8ff"></path><path d="M533 103L500 85L429 118Z" fill="#b1eeff" stroke="#b1eeff"></path><path d="M336 70L376 151L393 127Z" fill="#eafaff" stroke="#eafaff"></path><path d="M429 496L461 508L438 475Z" fill="#96e9ff" stroke="#96e9ff"></path><path d="M617 517L648 438L579 427Z" fill="#dff8ff" stroke="#dff8ff"></path><path d="M317 81L376 151L336 70Z" fill="#f5fdff" stroke="#f5fdff"></path><path d="M317 81L281 155L376 151Z" fill="#eafaff" stroke="#eafaff"></path><path d="M273 222L227 213L249 287Z" fill="#d4f5ff" stroke="#d4f5ff"></path><path d="M634 219L628 154L565 221Z" fill="#87e7ff" stroke="#87e7ff"></path><path d="M580 133L604 73L533 103Z" fill="#f5fdff" stroke="#f5fdff"></path><path d="M487 0L443 28L500 85Z" fill="#d4f5ff" stroke="#d4f5ff"></path><path d="M344 504L352 502L333 453Z" fill="#ffffff" stroke="#ffffff"></path><path d="M333 453L352 502L438 475Z" fill="#dff8ff" stroke="#dff8ff"></path><path d="M429 496L453 565L461 508Z" fill="#bdf1ff" stroke="#bdf1ff"></path><path d="M280 469L344 504L333 453Z" fill="#c9f3ff" stroke="#c9f3ff"></path><path d="M403 600L453 565L429 496Z" fill="#96e9ff" stroke="#96e9ff"></path><path d="M281 155L248 171L273 222Z" fill="#a4ecff" stroke="#a4ecff"></path><path d="M248 171L227 213L273 222Z" fill="#a4ecff" stroke="#a4ecff"></path><path d="M197 264L213 318L249 287Z" fill="#c9f3ff" stroke="#c9f3ff"></path><path d="M249 287L213 318L273 320Z" fill="#dff8ff" stroke="#dff8ff"></path><path d="M292 407L280 469L333 453Z" fill="#96e9ff" stroke="#96e9ff"></path><path d="M568 518L545 418L495 476Z" fill="#87e7ff" stroke="#87e7ff"></path><path d="M614 407L693 342L603 383Z" fill="#87e7ff" stroke="#87e7ff"></path><path d="M200 486L280 469L292 407Z" fill="#f5fdff" stroke="#f5fdff"></path><path d="M685 417L693 342L614 407Z" fill="#f5fdff" stroke="#f5fdff"></path><path d="M634 219L690 199L628 154Z" fill="#96e9ff" stroke="#96e9ff"></path><path d="M706 288L691 223L608 262Z" fill="#d4f5ff" stroke="#d4f5ff"></path><path d="M280 469L340 516L344 504Z" fill="#bdf1ff" stroke="#bdf1ff"></path><path d="M344 504L340 516L352 502Z" fill="#d4f5ff" stroke="#d4f5ff"></path><path d="M336 70L393 127L443 28Z" fill="#96e9ff" stroke="#96e9ff"></path><path d="M199 167L222 173L214 59Z" fill="#ffffff" stroke="#ffffff"></path><path d="M443 28L393 127L429 118Z" fill="#d4f5ff" stroke="#d4f5ff"></path><path d="M505 600L568 518L461 508Z" fill="#b1eeff" stroke="#b1eeff"></path><path d="M461 508L568 518L495 476Z" fill="#f5fdff" stroke="#f5fdff"></path><path d="M693 342L706 288L608 262Z" fill="#f5fdff" stroke="#f5fdff"></path><path d="M724 142L690 199L807 262Z" fill="#c9f3ff" stroke="#c9f3ff"></path><path d="M691 223L690 199L634 219Z" fill="#a4ecff" stroke="#a4ecff"></path><path d="M135 231L197 264L227 213Z" fill="#c9f3ff" stroke="#c9f3ff"></path><path d="M227 213L197 264L249 287Z" fill="#dff8ff" stroke="#dff8ff"></path><path d="M222 173L248 171L214 59Z" fill="#87e7ff" stroke="#87e7ff"></path><path d="M248 171L222 173L227 213Z" fill="#ffffff" stroke="#ffffff"></path><path d="M737 467L685 417L648 438Z" fill="#eafaff" stroke="#eafaff"></path><path d="M648 438L685 417L614 407Z" fill="#c9f3ff" stroke="#c9f3ff"></path><path d="M693 342L738 317L706 288Z" fill="#87e7ff" stroke="#87e7ff"></path><path d="M530 15L500 85L533 103Z" fill="#bdf1ff" stroke="#bdf1ff"></path><path d="M500 85L443 28L429 118Z" fill="#bdf1ff" stroke="#bdf1ff"></path><path d="M679 59L604 73L628 154Z" fill="#b1eeff" stroke="#b1eeff"></path><path d="M628 154L604 73L580 133Z" fill="#bdf1ff" stroke="#bdf1ff"></path><path d="M403 600L429 496L352 502Z" fill="#a4ecff" stroke="#a4ecff"></path><path d="M650 530L617 517L638 567Z" fill="#a4ecff" stroke="#a4ecff"></path><path d="M568 518L617 517L579 427Z" fill="#96e9ff" stroke="#96e9ff"></path><path d="M125 345L185 378L213 318Z" fill="#eafaff" stroke="#eafaff"></path><path d="M213 318L185 378L284 335Z" fill="#eafaff" stroke="#eafaff"></path><path d="M214 59L248 171L281 155Z" fill="#bdf1ff" stroke="#bdf1ff"></path><path d="M222 173L199 167L227 213Z" fill="#ffffff" stroke="#ffffff"></path><path d="M197 264L125 345L213 318Z" fill="#dff8ff" stroke="#dff8ff"></path><path d="M724 142L694 143L690 199Z" fill="#eafaff" stroke="#eafaff"></path><path d="M690 199L694 143L628 154Z" fill="#96e9ff" stroke="#96e9ff"></path><path d="M200 486L254 499L280 469Z" fill="#b1eeff" stroke="#b1eeff"></path><path d="M280 469L254 499L340 516Z" fill="#96e9ff" stroke="#96e9ff"></path><path d="M377 600L403 600L352 502Z" fill="#a4ecff" stroke="#a4ecff"></path><path d="M753 324L738 317L693 342Z" fill="#ffffff" stroke="#ffffff"></path><path d="M706 288L801 270L691 223Z" fill="#eafaff" stroke="#eafaff"></path><path d="M557 19L533 103L604 73Z" fill="#ffffff" stroke="#ffffff"></path><path d="M557 19L530 15L533 103Z" fill="#ffffff" stroke="#ffffff"></path><path d="M487 0L445 0L443 28Z" fill="#eafaff" stroke="#eafaff"></path><path d="M443 28L411 0L336 70Z" fill="#ffffff" stroke="#ffffff"></path><path d="M336 70L304 15L317 81Z" fill="#a4ecff" stroke="#a4ecff"></path><path d="M575 0L557 19L611 0Z" fill="#96e9ff" stroke="#96e9ff"></path><path d="M530 15L487 0L500 85Z" fill="#ffffff" stroke="#ffffff"></path><path d="M575 0L487 0L530 15Z" fill="#87e7ff" stroke="#87e7ff"></path><path d="M445 0L411 0L443 28Z" fill="#eafaff" stroke="#eafaff"></path><path d="M317 81L234 45L281 155Z" fill="#96e9ff" stroke="#96e9ff"></path><path d="M742 419L753 324L693 342Z" fill="#a4ecff" stroke="#a4ecff"></path><path d="M738 317L801 270L706 288Z" fill="#b1eeff" stroke="#b1eeff"></path><path d="M742 419L693 342L685 417Z" fill="#c9f3ff" stroke="#c9f3ff"></path><path d="M638 567L617 517L568 518Z" fill="#87e7ff" stroke="#87e7ff"></path><path d="M617 517L650 530L648 438Z" fill="#eafaff" stroke="#eafaff"></path><path d="M377 600L352 502L340 516Z" fill="#eafaff" stroke="#eafaff"></path><path d="M453 565L505 600L461 508Z" fill="#f5fdff" stroke="#f5fdff"></path><path d="M807 262L690 199L691 223Z" fill="#c9f3ff" stroke="#c9f3ff"></path><path d="M694 143L679 59L628 154Z" fill="#ffffff" stroke="#ffffff"></path><path d="M403 600L505 600L453 565Z" fill="#ffffff" stroke="#ffffff"></path><path d="M411 0L304 15L336 70Z" fill="#f5fdff" stroke="#f5fdff"></path><path d="M200 486L228 515L254 499Z" fill="#a4ecff" stroke="#a4ecff"></path><path d="M254 499L295 587L340 516Z" fill="#bdf1ff" stroke="#bdf1ff"></path><path d="M295 587L377 600L340 516Z" fill="#dff8ff" stroke="#dff8ff"></path><path d="M737 467L742 419L685 417Z" fill="#f5fdff" stroke="#f5fdff"></path><path d="M185 378L200 486L292 407Z" fill="#dff8ff" stroke="#dff8ff"></path><path d="M611 0L557 19L604 73Z" fill="#dff8ff" stroke="#dff8ff"></path><path d="M557 19L575 0L530 15Z" fill="#96e9ff" stroke="#96e9ff"></path><path d="M505 600L551 600L568 518Z" fill="#b1eeff" stroke="#b1eeff"></path><path d="M102 161L135 231L199 167Z" fill="#b1eeff" stroke="#b1eeff"></path><path d="M199 167L135 231L227 213Z" fill="#eafaff" stroke="#eafaff"></path><path d="M185 378L148 444L200 486Z" fill="#ffffff" stroke="#ffffff"></path><path d="M748 107L679 59L694 143Z" fill="#f5fdff" stroke="#f5fdff"></path><path d="M551 600L572 600L568 518Z" fill="#eafaff" stroke="#eafaff"></path><path d="M304 15L234 45L317 81Z" fill="#eafaff" stroke="#eafaff"></path><path d="M135 231L125 345L197 264Z" fill="#87e7ff" stroke="#87e7ff"></path><path d="M572 600L638 567L568 518Z" fill="#dff8ff" stroke="#dff8ff"></path><path d="M650 530L737 467L648 438Z" fill="#dff8ff" stroke="#dff8ff"></path><path d="M228 515L295 587L254 499Z" fill="#c9f3ff" stroke="#c9f3ff"></path><path d="M259 600L295 587L228 515Z" fill="#b1eeff" stroke="#b1eeff"></path><path d="M649 0L611 0L604 73Z" fill="#dff8ff" stroke="#dff8ff"></path><path d="M234 45L214 59L281 155Z" fill="#d4f5ff" stroke="#d4f5ff"></path><path d="M752 513L737 467L650 530Z" fill="#a4ecff" stroke="#a4ecff"></path><path d="M819 351L801 270L753 324Z" fill="#ffffff" stroke="#ffffff"></path><path d="M69 399L122 356L38 328Z" fill="#f5fdff" stroke="#f5fdff"></path><path d="M125 345L122 356L185 378Z" fill="#c9f3ff" stroke="#c9f3ff"></path><path d="M122 356L148 444L185 378Z" fill="#c9f3ff" stroke="#c9f3ff"></path><path d="M200 486L172 494L228 515Z" fill="#f5fdff" stroke="#f5fdff"></path><path d="M411 0L279 0L304 15Z" fill="#a4ecff" stroke="#a4ecff"></path><path d="M304 15L279 0L234 45Z" fill="#bdf1ff" stroke="#bdf1ff"></path><path d="M148 74L157 80L214 59Z" fill="#f5fdff" stroke="#f5fdff"></path><path d="M748 107L689 46L679 59Z" fill="#c9f3ff" stroke="#c9f3ff"></path><path d="M679 59L649 0L604 73Z" fill="#d4f5ff" stroke="#d4f5ff"></path><path d="M148 444L172 494L200 486Z" fill="#f5fdff" stroke="#f5fdff"></path><path d="M813 143L748 107L724 142Z" fill="#a4ecff" stroke="#a4ecff"></path><path d="M724 142L748 107L694 143Z" fill="#b1eeff" stroke="#b1eeff"></path><path d="M807 262L801 270L852 289Z" fill="#c9f3ff" stroke="#c9f3ff"></path><path d="M753 324L801 270L738 317Z" fill="#bdf1ff" stroke="#bdf1ff"></path><path d="M689 46L649 0L679 59Z" fill="#87e7ff" stroke="#87e7ff"></path><path d="M689 0L649 0L689 46Z" fill="#bdf1ff" stroke="#bdf1ff"></path><path d="M819 351L753 324L742 419Z" fill="#bdf1ff" stroke="#bdf1ff"></path><path d="M801 270L807 262L691 223Z" fill="#eafaff" stroke="#eafaff"></path><path d="M572 600L644 600L638 567Z" fill="#dff8ff" stroke="#dff8ff"></path><path d="M766 600L752 513L650 530Z" fill="#96e9ff" stroke="#96e9ff"></path><path d="M253 600L259 600L228 515Z" fill="#ffffff" stroke="#ffffff"></path><path d="M295 587L259 600L377 600Z" fill="#d4f5ff" stroke="#d4f5ff"></path><path d="M148 74L152 0L141 72Z" fill="#96e9ff" stroke="#96e9ff"></path><path d="M214 59L157 80L199 167Z" fill="#eafaff" stroke="#eafaff"></path><path d="M148 444L128 459L172 494Z" fill="#ffffff" stroke="#ffffff"></path><path d="M213 600L253 600L228 515Z" fill="#b1eeff" stroke="#b1eeff"></path><path d="M69 399L128 459L148 444Z" fill="#a4ecff" stroke="#a4ecff"></path><path d="M213 600L228 515L157 600Z" fill="#eafaff" stroke="#eafaff"></path><path d="M825 388L742 419L810 481Z" fill="#ffffff" stroke="#ffffff"></path><path d="M825 388L819 351L742 419Z" fill="#96e9ff" stroke="#96e9ff"></path><path d="M766 600L650 530L638 567Z" fill="#ffffff" stroke="#ffffff"></path><path d="M157 80L102 161L199 167Z" fill="#d4f5ff" stroke="#d4f5ff"></path><path d="M135 231L38 328L125 345Z" fill="#96e9ff" stroke="#96e9ff"></path><path d="M122 356L69 399L148 444Z" fill="#ffffff" stroke="#ffffff"></path><path d="M148 74L214 59L159 0Z" fill="#ffffff" stroke="#ffffff"></path><path d="M157 80L141 72L102 161Z" fill="#b1eeff" stroke="#b1eeff"></path><path d="M815 13L689 0L689 46Z" fill="#96e9ff" stroke="#96e9ff"></path><path d="M102 161L84 198L135 231Z" fill="#bdf1ff" stroke="#bdf1ff"></path><path d="M203 0L214 59L234 45Z" fill="#d4f5ff" stroke="#d4f5ff"></path><path d="M148 74L141 72L157 80Z" fill="#ffffff" stroke="#ffffff"></path><path d="M102 161L87 171L84 198Z" fill="#bdf1ff" stroke="#bdf1ff"></path><path d="M279 0L203 0L234 45Z" fill="#ffffff" stroke="#ffffff"></path><path d="M69 107L87 171L102 161Z" fill="#ffffff" stroke="#ffffff"></path><path d="M834 391L825 388L810 481Z" fill="#bdf1ff" stroke="#bdf1ff"></path><path d="M891 185L813 143L807 262Z" fill="#f5fdff" stroke="#f5fdff"></path><path d="M157 600L228 515L172 494Z" fill="#d4f5ff" stroke="#d4f5ff"></path><path d="M807 262L813 143L724 142Z" fill="#ffffff" stroke="#ffffff"></path><path d="M748 107L815 13L689 46Z" fill="#dff8ff" stroke="#dff8ff"></path><path d="M851 297L801 270L819 351Z" fill="#bdf1ff" stroke="#bdf1ff"></path><path d="M810 481L742 419L737 467Z" fill="#f5fdff" stroke="#f5fdff"></path><path d="M825 388L834 391L819 351Z" fill="#eafaff" stroke="#eafaff"></path><path d="M38 328L122 356L125 345Z" fill="#c9f3ff" stroke="#c9f3ff"></path><path d="M128 459L90 516L172 494Z" fill="#c9f3ff" stroke="#c9f3ff"></path><path d="M900 408L851 297L819 351Z" fill="#bdf1ff" stroke="#bdf1ff"></path><path d="M851 297L852 289L801 270Z" fill="#ffffff" stroke="#ffffff"></path><path d="M786 542L810 481L752 513Z" fill="#eafaff" stroke="#eafaff"></path><path d="M752 513L810 481L737 467Z" fill="#a4ecff" stroke="#a4ecff"></path><path d="M203 0L159 0L214 59Z" fill="#a4ecff" stroke="#a4ecff"></path><path d="M141 72L69 107L102 161Z" fill="#b1eeff" stroke="#b1eeff"></path><path d="M84 198L38 328L135 231Z" fill="#ffffff" stroke="#ffffff"></path><path d="M0 302L38 328L0 247Z" fill="#f5fdff" stroke="#f5fdff"></path><path d="M766 600L786 542L752 513Z" fill="#ffffff" stroke="#ffffff"></path><path d="M159 0L152 0L148 74Z" fill="#f5fdff" stroke="#f5fdff"></path><path d="M37 439L58 448L69 399Z" fill="#dff8ff" stroke="#dff8ff"></path><path d="M69 399L58 448L128 459Z" fill="#f5fdff" stroke="#f5fdff"></path><path d="M58 448L90 516L128 459Z" fill="#ffffff" stroke="#ffffff"></path><path d="M90 516L157 600L172 494Z" fill="#dff8ff" stroke="#dff8ff"></path><path d="M47 100L69 107L60 0Z" fill="#d4f5ff" stroke="#d4f5ff"></path><path d="M0 197L0 247L84 198Z" fill="#eafaff" stroke="#eafaff"></path><path d="M644 600L766 600L638 567Z" fill="#eafaff" stroke="#eafaff"></path><path d="M786 542L824 537L810 481Z" fill="#bdf1ff" stroke="#bdf1ff"></path><path d="M0 407L37 439L69 399Z" fill="#d4f5ff" stroke="#d4f5ff"></path><path d="M58 448L7 494L90 516Z" fill="#d4f5ff" stroke="#d4f5ff"></path><path d="M828 600L824 537L786 542Z" fill="#96e9ff" stroke="#96e9ff"></path><path d="M810 481L868 480L834 391Z" fill="#eafaff" stroke="#eafaff"></path><path d="M900 408L900 255L851 297Z" fill="#d4f5ff" stroke="#d4f5ff"></path><path d="M851 297L900 255L852 289Z" fill="#87e7ff" stroke="#87e7ff"></path><path d="M60 0L69 107L141 72Z" fill="#a4ecff" stroke="#a4ecff"></path><path d="M69 107L47 100L87 171Z" fill="#c9f3ff" stroke="#c9f3ff"></path><path d="M900 408L819 351L834 391Z" fill="#d4f5ff" stroke="#d4f5ff"></path><path d="M852 289L900 250L807 262Z" fill="#87e7ff" stroke="#87e7ff"></path><path d="M900 255L900 250L852 289Z" fill="#dff8ff" stroke="#dff8ff"></path><path d="M0 247L38 328L84 198Z" fill="#bdf1ff" stroke="#bdf1ff"></path><path d="M38 328L0 342L69 399Z" fill="#dff8ff" stroke="#dff8ff"></path><path d="M900 250L891 185L807 262Z" fill="#87e7ff" stroke="#87e7ff"></path><path d="M813 143L815 13L748 107Z" fill="#a4ecff" stroke="#a4ecff"></path><path d="M0 197L84 198L87 171Z" fill="#ffffff" stroke="#ffffff"></path><path d="M0 302L0 342L38 328Z" fill="#87e7ff" stroke="#87e7ff"></path><path d="M824 537L868 480L810 481Z" fill="#ffffff" stroke="#ffffff"></path><path d="M881 82L815 13L813 143Z" fill="#ffffff" stroke="#ffffff"></path><path d="M0 125L0 197L87 171Z" fill="#f5fdff" stroke="#f5fdff"></path><path d="M900 446L900 408L834 391Z" fill="#eafaff" stroke="#eafaff"></path><path d="M0 342L0 407L69 399Z" fill="#dff8ff" stroke="#dff8ff"></path><path d="M37 439L7 494L58 448Z" fill="#87e7ff" stroke="#87e7ff"></path><path d="M90 516L59 600L157 600Z" fill="#dff8ff" stroke="#dff8ff"></path><path d="M823 0L819 0L815 13Z" fill="#f5fdff" stroke="#f5fdff"></path><path d="M815 13L819 0L689 0Z" fill="#dff8ff" stroke="#dff8ff"></path><path d="M900 250L900 148L891 185Z" fill="#bdf1ff" stroke="#bdf1ff"></path><path d="M891 185L900 148L813 143Z" fill="#c9f3ff" stroke="#c9f3ff"></path><path d="M887 11L823 0L815 13Z" fill="#f5fdff" stroke="#f5fdff"></path><path d="M868 480L900 446L834 391Z" fill="#d4f5ff" stroke="#d4f5ff"></path><path d="M900 511L900 446L868 480Z" fill="#ffffff" stroke="#ffffff"></path><path d="M0 407L0 437L37 439Z" fill="#a4ecff" stroke="#a4ecff"></path><path d="M900 148L900 130L813 143Z" fill="#bdf1ff" stroke="#bdf1ff"></path><path d="M900 130L881 82L813 143Z" fill="#dff8ff" stroke="#dff8ff"></path><path d="M47 100L0 125L87 171Z" fill="#d4f5ff" stroke="#d4f5ff"></path><path d="M0 108L0 125L47 100Z" fill="#a4ecff" stroke="#a4ecff"></path><path d="M766 600L828 600L786 542Z" fill="#96e9ff" stroke="#96e9ff"></path><path d="M900 520L900 511L868 480Z" fill="#87e7ff" stroke="#87e7ff"></path><path d="M0 437L7 494L37 439Z" fill="#87e7ff" stroke="#87e7ff"></path><path d="M0 0L0 108L47 100Z" fill="#bdf1ff" stroke="#bdf1ff"></path><path d="M152 0L60 0L141 72Z" fill="#d4f5ff" stroke="#d4f5ff"></path><path d="M900 130L900 85L881 82Z" fill="#b1eeff" stroke="#b1eeff"></path><path d="M881 82L887 11L815 13Z" fill="#a4ecff" stroke="#a4ecff"></path><path d="M900 520L868 480L824 537Z" fill="#96e9ff" stroke="#96e9ff"></path><path d="M0 585L59 600L90 516Z" fill="#bdf1ff" stroke="#bdf1ff"></path><path d="M890 600L900 520L824 537Z" fill="#87e7ff" stroke="#87e7ff"></path><path d="M900 85L887 11L881 82Z" fill="#a4ecff" stroke="#a4ecff"></path><path d="M828 600L890 600L824 537Z" fill="#dff8ff" stroke="#dff8ff"></path><path d="M900 85L900 0L887 11Z" fill="#b1eeff" stroke="#b1eeff"></path><path d="M887 11L900 0L823 0Z" fill="#dff8ff" stroke="#dff8ff"></path><path d="M0 437L0 585L7 494Z" fill="#bdf1ff" stroke="#bdf1ff"></path><path d="M7 494L0 585L90 516Z" fill="#d4f5ff" stroke="#d4f5ff"></path><path d="M60 0L0 0L47 100Z" fill="#ffffff" stroke="#ffffff"></path><path d="M890 600L900 600L900 520Z" fill="#f5fdff" stroke="#f5fdff"></path><path d="M0 585L0 600L59 600Z" fill="#eafaff" stroke="#eafaff"></path></g></svg>