<svg id="visual" viewBox="0 0 900 600" width="900" height="600" xmlns="http://www.w3.org/2000/svg" xmlns:xlink="http://www.w3.org/1999/xlink" version="1.1"><g stroke-width="1" stroke-linejoin="bevel"><path d="M428 325L386 315L368 363Z" fill="#71afc7" stroke="#71afc7"></path><path d="M368 363L470 382L428 325Z" fill="#b0d0df" stroke="#b0d0df"></path><path d="M470 382L479 360L428 325Z" fill="#b0d0df" stroke="#b0d0df"></path><path d="M404 224L335 282L386 315Z" fill="#87bacf" stroke="#87bacf"></path><path d="M386 315L306 350L368 363Z" fill="#71afc7" stroke="#71afc7"></path><path d="M335 282L306 350L386 315Z" fill="#088eaf" stroke="#088eaf"></path><path d="M306 350L302 376L368 363Z" fill="#ebf3f7" stroke="#ebf3f7"></path><path d="M368 363L429 459L470 382Z" fill="#9cc5d7" stroke="#9cc5d7"></path><path d="M335 466L429 459L368 363Z" fill="#ebf3f7" stroke="#ebf3f7"></path><path d="M429 459L434 458L470 382Z" fill="#9cc5d7" stroke="#9cc5d7"></path><path d="M517 314L428 234L428 325Z" fill="#b0d0df" stroke="#b0d0df"></path><path d="M428 325L428 234L386 315Z" fill="#ebf3f7" stroke="#ebf3f7"></path><path d="M562 370L517 314L479 360Z" fill="#ebf3f7" stroke="#ebf3f7"></path><path d="M479 360L517 314L428 325Z" fill="#b0d0df" stroke="#b0d0df"></path><path d="M562 370L479 360L470 382Z" fill="#b0d0df" stroke="#b0d0df"></path><path d="M428 234L414 227L386 315Z" fill="#d8e8ef" stroke="#d8e8ef"></path><path d="M414 227L404 224L386 315Z" fill="#3d99b7" stroke="#3d99b7"></path><path d="M302 376L335 466L368 363Z" fill="#088eaf" stroke="#088eaf"></path><path d="M404 224L354 219L335 282Z" fill="#ffffff" stroke="#ffffff"></path><path d="M335 282L268 263L306 350Z" fill="#d8e8ef" stroke="#d8e8ef"></path><path d="M517 314L530 271L428 234Z" fill="#87bacf" stroke="#87bacf"></path><path d="M428 234L489 193L414 227Z" fill="#71afc7" stroke="#71afc7"></path><path d="M277 218L268 263L335 282Z" fill="#ebf3f7" stroke="#ebf3f7"></path><path d="M213 373L240 432L302 376Z" fill="#d8e8ef" stroke="#d8e8ef"></path><path d="M448 544L530 444L434 458Z" fill="#ebf3f7" stroke="#ebf3f7"></path><path d="M434 458L530 444L470 382Z" fill="#ffffff" stroke="#ffffff"></path><path d="M517 314L591 334L530 271Z" fill="#71afc7" stroke="#71afc7"></path><path d="M309 501L347 501L335 466Z" fill="#59a4bf" stroke="#59a4bf"></path><path d="M335 466L347 501L429 459Z" fill="#87bacf" stroke="#87bacf"></path><path d="M429 459L427 531L434 458Z" fill="#71afc7" stroke="#71afc7"></path><path d="M530 444L562 370L470 382Z" fill="#088eaf" stroke="#088eaf"></path><path d="M240 432L277 469L302 376Z" fill="#87bacf" stroke="#87bacf"></path><path d="M302 376L277 469L335 466Z" fill="#ffffff" stroke="#ffffff"></path><path d="M530 271L489 193L428 234Z" fill="#ffffff" stroke="#ffffff"></path><path d="M414 227L421 103L404 224Z" fill="#d8e8ef" stroke="#d8e8ef"></path><path d="M404 224L421 103L354 219Z" fill="#87bacf" stroke="#87bacf"></path><path d="M277 469L309 501L335 466Z" fill="#b0d0df" stroke="#b0d0df"></path><path d="M354 219L277 218L335 282Z" fill="#ebf3f7" stroke="#ebf3f7"></path><path d="M280 203L277 218L354 219Z" fill="#ffffff" stroke="#ffffff"></path><path d="M213 373L302 376L306 350Z" fill="#9cc5d7" stroke="#9cc5d7"></path><path d="M530 444L577 390L562 370Z" fill="#b0d0df" stroke="#b0d0df"></path><path d="M562 370L591 334L517 314Z" fill="#088eaf" stroke="#088eaf"></path><path d="M341 552L427 531L347 501Z" fill="#d8e8ef" stroke="#d8e8ef"></path><path d="M347 501L427 531L429 459Z" fill="#3d99b7" stroke="#3d99b7"></path><path d="M311 114L280 203L354 219Z" fill="#088eaf" stroke="#088eaf"></path><path d="M584 223L528 209L530 271Z" fill="#c4dce7" stroke="#c4dce7"></path><path d="M530 271L528 209L489 193Z" fill="#3d99b7" stroke="#3d99b7"></path><path d="M233 252L268 263L277 218Z" fill="#c4dce7" stroke="#c4dce7"></path><path d="M190 275L213 373L268 263Z" fill="#c4dce7" stroke="#c4dce7"></path><path d="M268 263L213 373L306 350Z" fill="#59a4bf" stroke="#59a4bf"></path><path d="M577 390L591 334L562 370Z" fill="#d8e8ef" stroke="#d8e8ef"></path><path d="M222 522L281 498L277 469Z" fill="#71afc7" stroke="#71afc7"></path><path d="M277 469L281 498L309 501Z" fill="#b0d0df" stroke="#b0d0df"></path><path d="M405 586L448 544L427 531Z" fill="#9cc5d7" stroke="#9cc5d7"></path><path d="M230 198L233 252L277 218Z" fill="#3d99b7" stroke="#3d99b7"></path><path d="M584 212L521 191L528 209Z" fill="#c4dce7" stroke="#c4dce7"></path><path d="M528 209L521 191L489 193Z" fill="#59a4bf" stroke="#59a4bf"></path><path d="M489 193L421 103L414 227Z" fill="#3d99b7" stroke="#3d99b7"></path><path d="M624 373L600 329L591 334Z" fill="#9cc5d7" stroke="#9cc5d7"></path><path d="M591 334L600 329L530 271Z" fill="#3d99b7" stroke="#3d99b7"></path><path d="M341 552L347 501L309 501Z" fill="#71afc7" stroke="#71afc7"></path><path d="M427 531L448 544L434 458Z" fill="#9cc5d7" stroke="#9cc5d7"></path><path d="M530 444L587 443L577 390Z" fill="#b0d0df" stroke="#b0d0df"></path><path d="M240 432L222 443L277 469Z" fill="#ffffff" stroke="#ffffff"></path><path d="M201 393L222 443L240 432Z" fill="#59a4bf" stroke="#59a4bf"></path><path d="M162 394L201 393L213 373Z" fill="#9cc5d7" stroke="#9cc5d7"></path><path d="M213 373L201 393L240 432Z" fill="#088eaf" stroke="#088eaf"></path><path d="M624 373L607 325L600 329Z" fill="#59a4bf" stroke="#59a4bf"></path><path d="M600 329L607 325L530 271Z" fill="#3d99b7" stroke="#3d99b7"></path><path d="M593 460L587 443L530 444Z" fill="#b0d0df" stroke="#b0d0df"></path><path d="M577 390L624 373L591 334Z" fill="#ebf3f7" stroke="#ebf3f7"></path><path d="M339 562L341 552L309 501Z" fill="#c4dce7" stroke="#c4dce7"></path><path d="M607 325L584 223L530 271Z" fill="#c4dce7" stroke="#c4dce7"></path><path d="M188 257L190 275L233 252Z" fill="#b0d0df" stroke="#b0d0df"></path><path d="M233 252L190 275L268 263Z" fill="#ffffff" stroke="#ffffff"></path><path d="M281 498L339 562L309 501Z" fill="#3d99b7" stroke="#3d99b7"></path><path d="M341 552L405 586L427 531Z" fill="#b0d0df" stroke="#b0d0df"></path><path d="M289 600L339 562L281 498Z" fill="#87bacf" stroke="#87bacf"></path><path d="M525 550L593 460L530 444Z" fill="#3d99b7" stroke="#3d99b7"></path><path d="M587 443L624 373L577 390Z" fill="#c4dce7" stroke="#c4dce7"></path><path d="M671 398L624 373L587 443Z" fill="#c4dce7" stroke="#c4dce7"></path><path d="M648 224L584 212L584 223Z" fill="#088eaf" stroke="#088eaf"></path><path d="M510 95L496 144L579 83Z" fill="#3d99b7" stroke="#3d99b7"></path><path d="M521 191L496 144L489 193Z" fill="#d8e8ef" stroke="#d8e8ef"></path><path d="M211 155L230 198L280 203Z" fill="#d8e8ef" stroke="#d8e8ef"></path><path d="M280 203L230 198L277 218Z" fill="#3d99b7" stroke="#3d99b7"></path><path d="M648 224L584 223L607 325Z" fill="#59a4bf" stroke="#59a4bf"></path><path d="M584 223L584 212L528 209Z" fill="#59a4bf" stroke="#59a4bf"></path><path d="M199 216L188 257L233 252Z" fill="#c4dce7" stroke="#c4dce7"></path><path d="M190 275L162 394L213 373Z" fill="#088eaf" stroke="#088eaf"></path><path d="M518 600L525 550L448 544Z" fill="#9cc5d7" stroke="#9cc5d7"></path><path d="M448 544L525 550L530 444Z" fill="#c4dce7" stroke="#c4dce7"></path><path d="M339 562L405 586L341 552Z" fill="#c4dce7" stroke="#c4dce7"></path><path d="M230 198L199 216L233 252Z" fill="#b0d0df" stroke="#b0d0df"></path><path d="M73 307L162 394L190 275Z" fill="#ebf3f7" stroke="#ebf3f7"></path><path d="M201 393L172 448L222 443Z" fill="#c4dce7" stroke="#c4dce7"></path><path d="M222 443L222 522L277 469Z" fill="#87bacf" stroke="#87bacf"></path><path d="M496 144L421 103L489 193Z" fill="#d8e8ef" stroke="#d8e8ef"></path><path d="M163 497L222 522L222 443Z" fill="#c4dce7" stroke="#c4dce7"></path><path d="M339 562L367 600L405 586Z" fill="#3d99b7" stroke="#3d99b7"></path><path d="M162 394L172 448L201 393Z" fill="#ebf3f7" stroke="#ebf3f7"></path><path d="M324 105L311 114L354 219Z" fill="#3d99b7" stroke="#3d99b7"></path><path d="M230 198L211 155L199 216Z" fill="#c4dce7" stroke="#c4dce7"></path><path d="M359 600L367 600L339 562Z" fill="#ffffff" stroke="#ffffff"></path><path d="M405 586L434 600L448 544Z" fill="#9cc5d7" stroke="#9cc5d7"></path><path d="M367 600L434 600L405 586Z" fill="#9cc5d7" stroke="#9cc5d7"></path><path d="M421 103L324 105L354 219Z" fill="#c4dce7" stroke="#c4dce7"></path><path d="M289 600L359 600L339 562Z" fill="#3d99b7" stroke="#3d99b7"></path><path d="M435 74L387 79L421 103Z" fill="#c4dce7" stroke="#c4dce7"></path><path d="M421 103L387 79L324 105Z" fill="#b0d0df" stroke="#b0d0df"></path><path d="M199 216L161 214L188 257Z" fill="#b0d0df" stroke="#b0d0df"></path><path d="M311 114L211 155L280 203Z" fill="#ffffff" stroke="#ffffff"></path><path d="M209 137L211 155L311 114Z" fill="#ffffff" stroke="#ffffff"></path><path d="M211 155L161 214L199 216Z" fill="#b0d0df" stroke="#b0d0df"></path><path d="M188 257L98 260L190 275Z" fill="#b0d0df" stroke="#b0d0df"></path><path d="M525 550L634 492L593 460Z" fill="#c4dce7" stroke="#c4dce7"></path><path d="M682 455L671 398L587 443Z" fill="#b0d0df" stroke="#b0d0df"></path><path d="M597 600L634 492L525 550Z" fill="#87bacf" stroke="#87bacf"></path><path d="M682 455L587 443L593 460Z" fill="#3d99b7" stroke="#3d99b7"></path><path d="M624 373L695 296L607 325Z" fill="#ebf3f7" stroke="#ebf3f7"></path><path d="M579 83L496 144L521 191Z" fill="#87bacf" stroke="#87bacf"></path><path d="M496 144L478 76L421 103Z" fill="#ebf3f7" stroke="#ebf3f7"></path><path d="M259 600L289 600L281 498Z" fill="#b0d0df" stroke="#b0d0df"></path><path d="M478 76L435 74L421 103Z" fill="#71afc7" stroke="#71afc7"></path><path d="M695 296L648 224L607 325Z" fill="#59a4bf" stroke="#59a4bf"></path><path d="M584 212L579 83L521 191Z" fill="#c4dce7" stroke="#c4dce7"></path><path d="M434 600L518 600L448 544Z" fill="#3d99b7" stroke="#3d99b7"></path><path d="M172 448L163 497L222 443Z" fill="#59a4bf" stroke="#59a4bf"></path><path d="M222 522L259 600L281 498Z" fill="#d8e8ef" stroke="#d8e8ef"></path><path d="M117 442L163 497L172 448Z" fill="#87bacf" stroke="#87bacf"></path><path d="M510 95L478 76L496 144Z" fill="#b0d0df" stroke="#b0d0df"></path><path d="M261 84L209 137L311 114Z" fill="#59a4bf" stroke="#59a4bf"></path><path d="M211 155L101 162L161 214Z" fill="#b0d0df" stroke="#b0d0df"></path><path d="M261 84L311 114L324 105Z" fill="#b0d0df" stroke="#b0d0df"></path><path d="M202 600L259 600L222 522Z" fill="#87bacf" stroke="#87bacf"></path><path d="M510 42L498 70L510 95Z" fill="#9cc5d7" stroke="#9cc5d7"></path><path d="M510 95L498 70L478 76Z" fill="#71afc7" stroke="#71afc7"></path><path d="M460 0L418 0L435 74Z" fill="#71afc7" stroke="#71afc7"></path><path d="M88 457L157 520L163 497Z" fill="#87bacf" stroke="#87bacf"></path><path d="M163 497L157 520L222 522Z" fill="#3d99b7" stroke="#3d99b7"></path><path d="M117 442L172 448L162 394Z" fill="#d8e8ef" stroke="#d8e8ef"></path><path d="M259 31L324 105L309 0Z" fill="#3d99b7" stroke="#3d99b7"></path><path d="M259 31L261 84L324 105Z" fill="#c4dce7" stroke="#c4dce7"></path><path d="M324 105L387 79L309 0Z" fill="#59a4bf" stroke="#59a4bf"></path><path d="M93 436L117 442L162 394Z" fill="#3d99b7" stroke="#3d99b7"></path><path d="M701 380L695 296L624 373Z" fill="#c4dce7" stroke="#c4dce7"></path><path d="M674 223L664 206L648 224Z" fill="#ebf3f7" stroke="#ebf3f7"></path><path d="M648 224L648 163L584 212Z" fill="#3d99b7" stroke="#3d99b7"></path><path d="M695 296L674 223L648 224Z" fill="#ebf3f7" stroke="#ebf3f7"></path><path d="M634 492L682 455L593 460Z" fill="#088eaf" stroke="#088eaf"></path><path d="M671 398L701 380L624 373Z" fill="#3d99b7" stroke="#3d99b7"></path><path d="M677 506L682 455L634 492Z" fill="#87bacf" stroke="#87bacf"></path><path d="M682 455L701 380L671 398Z" fill="#ebf3f7" stroke="#ebf3f7"></path><path d="M676 148L648 163L664 206Z" fill="#9cc5d7" stroke="#9cc5d7"></path><path d="M664 206L648 163L648 224Z" fill="#d8e8ef" stroke="#d8e8ef"></path><path d="M92 208L98 260L161 214Z" fill="#ebf3f7" stroke="#ebf3f7"></path><path d="M161 214L98 260L188 257Z" fill="#c4dce7" stroke="#c4dce7"></path><path d="M633 582L677 506L634 492Z" fill="#ebf3f7" stroke="#ebf3f7"></path><path d="M771 403L739 307L701 380Z" fill="#9cc5d7" stroke="#9cc5d7"></path><path d="M648 163L579 83L584 212Z" fill="#59a4bf" stroke="#59a4bf"></path><path d="M73 307L93 436L162 394Z" fill="#d8e8ef" stroke="#d8e8ef"></path><path d="M117 442L88 457L163 497Z" fill="#9cc5d7" stroke="#9cc5d7"></path><path d="M518 600L597 600L525 550Z" fill="#b0d0df" stroke="#b0d0df"></path><path d="M161 600L202 600L157 520Z" fill="#59a4bf" stroke="#59a4bf"></path><path d="M157 520L202 600L222 522Z" fill="#ffffff" stroke="#ffffff"></path><path d="M592 0L576 75L612 0Z" fill="#ffffff" stroke="#ffffff"></path><path d="M579 83L576 75L510 95Z" fill="#59a4bf" stroke="#59a4bf"></path><path d="M576 75L510 42L510 95Z" fill="#87bacf" stroke="#87bacf"></path><path d="M498 70L510 42L478 76Z" fill="#ffffff" stroke="#ffffff"></path><path d="M98 260L73 307L190 275Z" fill="#b0d0df" stroke="#b0d0df"></path><path d="M597 600L633 582L634 492Z" fill="#d8e8ef" stroke="#d8e8ef"></path><path d="M35 409L88 457L93 436Z" fill="#c4dce7" stroke="#c4dce7"></path><path d="M93 436L88 457L117 442Z" fill="#87bacf" stroke="#87bacf"></path><path d="M93 199L161 214L101 162Z" fill="#b0d0df" stroke="#b0d0df"></path><path d="M93 199L92 208L161 214Z" fill="#c4dce7" stroke="#c4dce7"></path><path d="M98 260L0 247L73 307Z" fill="#3d99b7" stroke="#3d99b7"></path><path d="M727 212L676 148L664 206Z" fill="#ebf3f7" stroke="#ebf3f7"></path><path d="M648 163L676 148L579 83Z" fill="#ebf3f7" stroke="#ebf3f7"></path><path d="M727 212L664 206L674 223Z" fill="#d8e8ef" stroke="#d8e8ef"></path><path d="M701 380L739 307L695 296Z" fill="#ffffff" stroke="#ffffff"></path><path d="M695 296L727 212L674 223Z" fill="#088eaf" stroke="#088eaf"></path><path d="M771 403L701 380L682 455Z" fill="#d8e8ef" stroke="#d8e8ef"></path><path d="M101 162L211 155L209 137Z" fill="#71afc7" stroke="#71afc7"></path><path d="M0 344L35 409L73 307Z" fill="#87bacf" stroke="#87bacf"></path><path d="M418 0L387 79L435 74Z" fill="#ebf3f7" stroke="#ebf3f7"></path><path d="M261 84L195 37L209 137Z" fill="#d8e8ef" stroke="#d8e8ef"></path><path d="M62 541L161 600L157 520Z" fill="#3d99b7" stroke="#3d99b7"></path><path d="M460 0L435 74L478 76Z" fill="#b0d0df" stroke="#b0d0df"></path><path d="M73 100L101 162L209 137Z" fill="#088eaf" stroke="#088eaf"></path><path d="M551 0L460 0L510 42Z" fill="#71afc7" stroke="#71afc7"></path><path d="M510 42L460 0L478 76Z" fill="#ffffff" stroke="#ffffff"></path><path d="M757 253L727 212L695 296Z" fill="#59a4bf" stroke="#59a4bf"></path><path d="M633 582L656 600L677 506Z" fill="#59a4bf" stroke="#59a4bf"></path><path d="M750 516L771 403L682 455Z" fill="#c4dce7" stroke="#c4dce7"></path><path d="M597 600L656 600L633 582Z" fill="#b0d0df" stroke="#b0d0df"></path><path d="M418 0L309 0L387 79Z" fill="#9cc5d7" stroke="#9cc5d7"></path><path d="M791 314L757 253L739 307Z" fill="#c4dce7" stroke="#c4dce7"></path><path d="M739 307L757 253L695 296Z" fill="#87bacf" stroke="#87bacf"></path><path d="M73 307L35 409L93 436Z" fill="#088eaf" stroke="#088eaf"></path><path d="M88 457L62 541L157 520Z" fill="#87bacf" stroke="#87bacf"></path><path d="M0 344L73 307L0 247Z" fill="#71afc7" stroke="#71afc7"></path><path d="M0 233L92 208L93 199Z" fill="#ffffff" stroke="#ffffff"></path><path d="M757 253L741 197L727 212Z" fill="#088eaf" stroke="#088eaf"></path><path d="M727 212L741 197L676 148Z" fill="#088eaf" stroke="#088eaf"></path><path d="M242 0L195 37L259 31Z" fill="#c4dce7" stroke="#c4dce7"></path><path d="M259 31L195 37L261 84Z" fill="#088eaf" stroke="#088eaf"></path><path d="M750 516L682 455L677 506Z" fill="#59a4bf" stroke="#59a4bf"></path><path d="M309 0L257 0L259 31Z" fill="#59a4bf" stroke="#59a4bf"></path><path d="M592 0L551 0L576 75Z" fill="#71afc7" stroke="#71afc7"></path><path d="M576 75L551 0L510 42Z" fill="#59a4bf" stroke="#59a4bf"></path><path d="M576 75L579 83L664 42Z" fill="#87bacf" stroke="#87bacf"></path><path d="M73 100L74 155L101 162Z" fill="#ffffff" stroke="#ffffff"></path><path d="M101 162L74 155L93 199Z" fill="#d8e8ef" stroke="#d8e8ef"></path><path d="M257 0L242 0L259 31Z" fill="#088eaf" stroke="#088eaf"></path><path d="M656 600L739 531L677 506Z" fill="#d8e8ef" stroke="#d8e8ef"></path><path d="M739 531L750 516L677 506Z" fill="#b0d0df" stroke="#b0d0df"></path><path d="M25 518L62 541L88 457Z" fill="#d8e8ef" stroke="#d8e8ef"></path><path d="M771 403L791 314L739 307Z" fill="#b0d0df" stroke="#b0d0df"></path><path d="M778 138L743 134L741 197Z" fill="#d8e8ef" stroke="#d8e8ef"></path><path d="M814 399L791 314L771 403Z" fill="#3d99b7" stroke="#3d99b7"></path><path d="M664 42L579 83L676 148Z" fill="#d8e8ef" stroke="#d8e8ef"></path><path d="M0 247L98 260L0 233Z" fill="#d8e8ef" stroke="#d8e8ef"></path><path d="M35 409L0 439L88 457Z" fill="#3d99b7" stroke="#3d99b7"></path><path d="M706 49L664 42L676 148Z" fill="#9cc5d7" stroke="#9cc5d7"></path><path d="M778 138L741 197L838 142Z" fill="#59a4bf" stroke="#59a4bf"></path><path d="M741 197L743 134L676 148Z" fill="#ebf3f7" stroke="#ebf3f7"></path><path d="M750 516L800 410L771 403Z" fill="#c4dce7" stroke="#c4dce7"></path><path d="M664 42L612 0L576 75Z" fill="#71afc7" stroke="#71afc7"></path><path d="M195 37L73 100L209 137Z" fill="#ffffff" stroke="#ffffff"></path><path d="M0 233L98 260L92 208Z" fill="#ffffff" stroke="#ffffff"></path><path d="M98 27L73 100L195 37Z" fill="#088eaf" stroke="#088eaf"></path><path d="M0 344L0 439L35 409Z" fill="#59a4bf" stroke="#59a4bf"></path><path d="M0 470L25 518L88 457Z" fill="#d8e8ef" stroke="#d8e8ef"></path><path d="M0 233L93 199L74 155Z" fill="#3d99b7" stroke="#3d99b7"></path><path d="M0 132L0 233L74 155Z" fill="#088eaf" stroke="#088eaf"></path><path d="M827 488L814 399L800 410Z" fill="#c4dce7" stroke="#c4dce7"></path><path d="M800 410L814 399L771 403Z" fill="#3d99b7" stroke="#3d99b7"></path><path d="M838 142L741 197L757 253Z" fill="#c4dce7" stroke="#c4dce7"></path><path d="M242 0L170 0L195 37Z" fill="#c4dce7" stroke="#c4dce7"></path><path d="M0 439L0 470L88 457Z" fill="#59a4bf" stroke="#59a4bf"></path><path d="M739 531L767 600L750 516Z" fill="#71afc7" stroke="#71afc7"></path><path d="M750 516L827 488L800 410Z" fill="#9cc5d7" stroke="#9cc5d7"></path><path d="M656 600L735 600L739 531Z" fill="#3d99b7" stroke="#3d99b7"></path><path d="M170 0L164 0L195 37Z" fill="#71afc7" stroke="#71afc7"></path><path d="M0 470L0 495L25 518Z" fill="#ebf3f7" stroke="#ebf3f7"></path><path d="M743 134L706 49L676 148Z" fill="#59a4bf" stroke="#59a4bf"></path><path d="M664 42L722 0L612 0Z" fill="#59a4bf" stroke="#59a4bf"></path><path d="M878 273L757 253L791 314Z" fill="#ebf3f7" stroke="#ebf3f7"></path><path d="M743 134L792 38L706 49Z" fill="#87bacf" stroke="#87bacf"></path><path d="M164 0L98 27L195 37Z" fill="#87bacf" stroke="#87bacf"></path><path d="M73 100L0 132L74 155Z" fill="#088eaf" stroke="#088eaf"></path><path d="M735 600L767 600L739 531Z" fill="#3d99b7" stroke="#3d99b7"></path><path d="M900 307L849 329L900 391Z" fill="#59a4bf" stroke="#59a4bf"></path><path d="M814 399L849 329L791 314Z" fill="#59a4bf" stroke="#59a4bf"></path><path d="M828 506L827 488L750 516Z" fill="#c4dce7" stroke="#c4dce7"></path><path d="M98 27L34 79L73 100Z" fill="#c4dce7" stroke="#c4dce7"></path><path d="M0 109L0 132L73 100Z" fill="#ffffff" stroke="#ffffff"></path><path d="M767 600L828 506L750 516Z" fill="#c4dce7" stroke="#c4dce7"></path><path d="M900 437L900 391L814 399Z" fill="#71afc7" stroke="#71afc7"></path><path d="M0 600L20 600L25 518Z" fill="#9cc5d7" stroke="#9cc5d7"></path><path d="M25 518L20 600L62 541Z" fill="#71afc7" stroke="#71afc7"></path><path d="M62 541L20 600L161 600Z" fill="#d8e8ef" stroke="#d8e8ef"></path><path d="M34 79L0 109L73 100Z" fill="#d8e8ef" stroke="#d8e8ef"></path><path d="M838 142L805 106L778 138Z" fill="#3d99b7" stroke="#3d99b7"></path><path d="M778 138L805 106L743 134Z" fill="#d8e8ef" stroke="#d8e8ef"></path><path d="M0 495L0 600L25 518Z" fill="#87bacf" stroke="#87bacf"></path><path d="M792 38L722 0L706 49Z" fill="#9cc5d7" stroke="#9cc5d7"></path><path d="M706 49L722 0L664 42Z" fill="#088eaf" stroke="#088eaf"></path><path d="M0 0L0 88L34 79Z" fill="#59a4bf" stroke="#59a4bf"></path><path d="M34 79L0 88L0 109Z" fill="#9cc5d7" stroke="#9cc5d7"></path><path d="M767 600L849 514L828 506Z" fill="#b0d0df" stroke="#b0d0df"></path><path d="M828 506L849 514L827 488Z" fill="#3d99b7" stroke="#3d99b7"></path><path d="M900 307L878 273L849 329Z" fill="#c4dce7" stroke="#c4dce7"></path><path d="M849 329L878 273L791 314Z" fill="#b0d0df" stroke="#b0d0df"></path><path d="M900 208L838 142L757 253Z" fill="#3d99b7" stroke="#3d99b7"></path><path d="M805 106L792 38L743 134Z" fill="#71afc7" stroke="#71afc7"></path><path d="M164 0L44 0L98 27Z" fill="#b0d0df" stroke="#b0d0df"></path><path d="M98 27L44 0L34 79Z" fill="#ebf3f7" stroke="#ebf3f7"></path><path d="M856 0L792 38L900 61Z" fill="#71afc7" stroke="#71afc7"></path><path d="M900 391L849 329L814 399Z" fill="#c4dce7" stroke="#c4dce7"></path><path d="M878 273L900 208L757 253Z" fill="#088eaf" stroke="#088eaf"></path><path d="M900 437L814 399L827 488Z" fill="#9cc5d7" stroke="#9cc5d7"></path><path d="M900 307L900 278L878 273Z" fill="#87bacf" stroke="#87bacf"></path><path d="M856 0L800 0L792 38Z" fill="#ebf3f7" stroke="#ebf3f7"></path><path d="M900 487L900 437L827 488Z" fill="#ebf3f7" stroke="#ebf3f7"></path><path d="M900 278L900 256L878 273Z" fill="#59a4bf" stroke="#59a4bf"></path><path d="M900 600L900 487L849 514Z" fill="#b0d0df" stroke="#b0d0df"></path><path d="M849 514L900 487L827 488Z" fill="#3d99b7" stroke="#3d99b7"></path><path d="M900 256L900 208L878 273Z" fill="#71afc7" stroke="#71afc7"></path><path d="M892 131L805 106L838 142Z" fill="#d8e8ef" stroke="#d8e8ef"></path><path d="M792 38L800 0L722 0Z" fill="#ffffff" stroke="#ffffff"></path><path d="M44 0L0 0L34 79Z" fill="#71afc7" stroke="#71afc7"></path><path d="M900 208L892 131L838 142Z" fill="#d8e8ef" stroke="#d8e8ef"></path><path d="M767 600L883 600L849 514Z" fill="#b0d0df" stroke="#b0d0df"></path><path d="M900 208L900 127L892 131Z" fill="#c4dce7" stroke="#c4dce7"></path><path d="M900 61L792 38L805 106Z" fill="#87bacf" stroke="#87bacf"></path><path d="M883 600L900 600L849 514Z" fill="#d8e8ef" stroke="#d8e8ef"></path><path d="M900 61L805 106L892 131Z" fill="#ffffff" stroke="#ffffff"></path><path d="M900 127L900 61L892 131Z" fill="#ebf3f7" stroke="#ebf3f7"></path><path d="M900 61L900 0L856 0Z" fill="#b0d0df" stroke="#b0d0df"></path></g></svg>