<svg width="496" height="42" viewBox="0 0 42 42" fill="none" xmlns="http://www.w3.org/2000/svg">
<path d="M496 248C496 384.8 384.8 496 248 496C111.2 496 0 384.8 0 248C0 111.2 111.2 0 248 0C384.8 0 496 111.2 496 248Z" fill="#7B73FF"/>
<path d="M248 0C384.8 0 496 111.2 496 248C496 384.8 384.8 496 248 496" fill="#6C63FF"/>
<path d="M72.8 72.8C169.6 -24 326.4 -24 423.2 72.8C520 169.6 520 326.4 423.2 423.2" fill="#756CFC"/>
<path d="M188 192C176 192 168 201.6 168 212.8V328.8C168 340.8 176 350.4 188 350.4C200 350.4 208 340.8 208 328.8V212.8C208 201.6 200 192 188 192Z" fill="#6C63FF"/>
<path d="M308 192C296 192 288 201.6 288 212.8V328.8C288 340.8 296 350.4 308 350.4C320 350.4 328 340.8 328 328.8V212.8C328 201.6 320 192 308 192Z" fill="#6C63FF"/>
<path d="M188 168.8C176 168.8 168 178.4 168 190.4V306.4C168 318.4 176 328 188 328C200 328 208 318.4 208 306.4V189.6C208 178.4 200 168.8 188 168.8Z" fill="white"/>
<path d="M308 168.8C296 168.8 288 178.4 288 190.4V306.4C288 318.4 296 328 308 328C320 328 328 318.4 328 306.4V189.6C328 178.4 320 168.8 308 168.8Z" fill="white"/>
</svg>
