<svg width="642" height="598" viewBox="0 0 642 598" fill="none" xmlns="http://www.w3.org/2000/svg">
<g id="reading_book_edit" clip-path="url(#clip0_2_2)">
<path id="Vector" d="M329.33 590.122V467.107C329.332 465.384 330.018 463.731 331.236 462.513C332.455 461.294 334.107 460.609 335.83 460.607H350.59C352.313 460.609 353.965 461.294 355.184 462.513C356.402 463.731 357.088 465.384 357.09 467.107V590.122C357.088 591.845 356.402 593.497 355.184 594.716C353.965 595.934 352.313 596.62 350.59 596.622H335.83C334.107 596.62 332.455 595.934 331.236 594.716C330.018 593.497 329.332 591.845 329.33 590.122V590.122Z" fill="#2F2E41"/>
<path id="Vector_2" d="M300.138 590.122V467.107C300.14 465.384 300.825 463.731 302.044 462.513C303.262 461.294 304.914 460.609 306.638 460.607H321.398C323.121 460.609 324.773 461.294 325.992 462.513C327.21 463.731 327.896 465.384 327.898 467.107V590.122C327.896 591.845 327.21 593.497 325.992 594.716C324.773 595.934 323.121 596.62 321.398 596.622H306.638C304.914 596.62 303.262 595.934 302.044 594.716C300.825 593.497 300.14 591.845 300.138 590.122V590.122Z" fill="#2F2E41"/>
<path id="Vector_3" d="M358.494 426.494H298.734C295.42 426.494 292.734 429.181 292.734 432.494V500C292.734 503.314 295.42 506 298.734 506H358.494C361.807 506 364.494 503.314 364.494 500V432.494C364.494 429.181 361.807 426.494 358.494 426.494Z" fill="#2F2E41"/>
<g id="head">
<path id="Vector_4" d="M328.222 321.761C357.78 321.761 381.741 297.8 381.741 268.242C381.741 238.684 357.78 214.723 328.222 214.723C298.664 214.723 274.703 238.684 274.703 268.242C274.703 297.8 298.664 321.761 328.222 321.761Z" fill="#6C63FF"/>
<path id="Vector_5" d="M334.46 286.111C331.153 286.019 327.038 285.903 323.871 283.589C322.927 282.871 322.151 281.956 321.599 280.907C321.046 279.857 320.729 278.7 320.671 277.516C320.614 276.674 320.752 275.831 321.074 275.051C321.397 274.272 321.896 273.578 322.531 273.023C324.185 271.625 326.603 271.295 329.209 272.062L326.51 252.336L328.492 252.064L331.664 275.255L330.01 274.496C328.093 273.615 325.459 273.168 323.822 274.551C323.42 274.912 323.108 275.361 322.908 275.863C322.708 276.365 322.626 276.907 322.67 277.445C322.718 278.327 322.956 279.188 323.367 279.969C323.778 280.75 324.352 281.434 325.051 281.974C327.515 283.774 330.796 284.008 334.517 284.111L334.46 286.111Z" fill="#2F2E41"/>
<path id="Vector_6" d="M316.711 254.037H305.939V256.037H316.711V254.037Z" fill="#2F2E41"/>
<path id="Vector_7" d="M350.711 254.037H339.939V256.037H350.711V254.037Z" fill="#2F2E41"/>
<path id="Vector_8" d="M292.866 226.419C284.192 225.43 277.474 217.119 276.736 208.686C275.858 198.654 281.701 189.126 289.716 183.497C298.098 177.609 308.542 175.151 318.646 174.61C338.358 173.629 357.729 180.014 372.994 192.523C380.566 198.812 387.637 206.822 390.317 216.498C392.645 224.9 390.751 234.42 383.992 240.305C382.321 241.747 380.368 242.827 378.258 243.477C376.148 244.126 373.926 244.332 371.732 244.08C366.488 243.535 361.65 240.778 357.462 237.733C349.315 231.809 342.627 223.557 332.701 220.462C325.424 218.192 315.979 220.19 311.532 226.771C310.523 228.278 309.869 229.994 309.619 231.79C309.527 232.173 309.585 232.577 309.779 232.92C309.974 233.262 310.291 233.518 310.667 233.635C311.051 233.739 311.459 233.687 311.805 233.49C312.15 233.294 312.404 232.97 312.512 232.588C313.68 224.298 323.872 221.205 331.025 223.098C341.453 225.858 348.454 235.164 357.01 241.077C361.509 244.185 366.625 246.671 372.143 247.117C376.899 247.49 381.619 246.04 385.346 243.061C392.655 237.289 395.451 227.361 393.834 218.423C391.963 208.073 384.996 199.202 377.352 192.334C361.857 178.558 341.739 171.126 321.008 171.52C310.435 171.762 299.402 173.945 290.293 179.534C281.458 184.955 274.628 194.024 273.736 204.566C272.95 213.845 277.928 223.55 286.474 227.615C288.489 228.57 290.65 229.179 292.866 229.419C294.781 229.638 294.766 226.636 292.866 226.419H292.866Z" fill="#2F2E41"/>
</g>
<path id="Vector_9" d="M228.149 233.226C228.149 233.226 197.99 247.236 172.469 256.527C156.632 220.776 133.816 222.114 133.816 222.114L119.984 231.639L122.478 245.924L121.798 269.281L118.17 281.526L123.376 282.467L126.317 283L126.761 282.599C126.027 285.507 125.73 288.508 125.88 291.503L256.721 271.095C256.721 271.095 252.186 250.006 228.149 233.226Z" fill="#E6E6E6"/>
<path id="Vector_10" d="M189.513 417.106L198.285 428.975C200.255 431.64 204.012 432.204 206.676 430.235L305.605 357.121C308.27 355.151 308.834 351.394 306.864 348.729L298.092 336.86C296.122 334.195 292.365 333.631 289.7 335.601L190.772 408.714C188.107 410.684 187.543 414.441 189.513 417.106Z" fill="#6C63FF"/>
<path id="Vector_11" d="M358.083 332.828L345.046 339.746C342.119 341.3 341.005 344.932 342.558 347.859L400.223 456.52C401.776 459.447 405.409 460.561 408.336 459.008L421.373 452.089C424.3 450.535 425.414 446.903 423.86 443.976L366.196 335.315C364.642 332.388 361.01 331.274 358.083 332.828Z" fill="#6C63FF"/>
<path id="Vector_12" d="M394.632 381.053L373.339 395.168C370.085 396.895 366.188 395.922 364.635 392.995L341.12 348.684C339.566 345.757 340.945 341.984 344.199 340.257L358.692 332.566C361.945 330.839 365.842 331.812 367.396 334.739L397.711 372.626C399.264 375.553 397.886 379.326 394.632 381.053Z" fill="#CCCCCC"/>
<path id="Vector_13" d="M249.532 368.072L263.371 386.451C264.46 387.612 265.966 388.292 267.556 388.342C269.147 388.392 270.692 387.809 271.852 386.72L308.429 352.389C309.589 351.3 310.269 349.794 310.319 348.204C310.37 346.613 309.786 345.068 308.697 343.908L298.596 333.146C297.507 331.986 296.002 331.306 294.411 331.255C292.821 331.205 291.275 331.788 290.115 332.877L249.8 359.591C248.64 360.68 247.96 362.186 247.91 363.776C247.859 365.367 248.443 366.912 249.532 368.072V368.072Z" fill="#CCCCCC"/>
<path id="Vector_14" d="M362.145 331.059H295.083C291.769 331.059 289.083 333.746 289.083 337.059V479.535C289.083 482.849 291.769 485.535 295.083 485.535H362.145C365.459 485.535 368.145 482.849 368.145 479.535V337.059C368.145 333.746 365.459 331.059 362.145 331.059Z" fill="#CCCCCC"/>
<path id="Vector_15" d="M126.22 281.186L132.569 279.145C133.249 277.841 132.004 278.678 132.598 277.41C148.662 243.14 133.816 222.114 133.816 222.114L122.331 230.022C122.303 229.957 122.28 229.89 122.251 229.824C122.251 229.824 120.21 225.289 117.036 228.69C117.036 228.69 127.013 252.954 115.902 283.113L128.827 289.009L133.816 283.113L133.93 282.546L125.001 281.735L126.22 281.186Z" fill="#CCCCCC"/>
<path id="Vector_16" d="M307.289 408.512C256.267 397.174 208.761 420.644 208.761 420.644L208.632 420.528L189.713 403.637L115.789 283L133.816 283.113C183.93 253.181 254.453 257.263 254.453 257.263C284.839 291.73 307.289 408.512 307.289 408.512Z" fill="#3F3D56"/>
<path id="Vector_17" opacity="0.1" d="M208.632 420.529L189.713 403.637L115.789 283L133.816 283.113C133.816 283.113 205.668 378.011 208.632 420.529Z" fill="black"/>
<path id="Vector_18" d="M216.935 326.401C232.38 321.664 242.46 309.864 239.448 300.046C236.437 290.228 221.475 286.11 206.029 290.847C190.584 295.584 180.504 307.384 183.516 317.202C186.527 327.02 201.489 331.138 216.935 326.401Z" fill="#6C63FF"/>
<g id="book1">
<path id="Vector_19" d="M59.0116 224.508C54.9377 239.567 40.984 248.894 40.984 248.894C40.984 248.894 33.6352 233.804 37.709 218.745C41.7828 203.686 55.7366 194.359 55.7366 194.359C55.7366 194.359 63.0854 209.449 59.0116 224.508Z" fill="#CCCCCC"/>
<path id="Vector_20" d="M21.9512 224.508C26.025 239.567 39.9787 248.894 39.9787 248.894C39.9787 248.894 47.3275 233.804 43.2537 218.745C39.1799 203.686 25.2262 194.359 25.2262 194.359C25.2262 194.359 17.8774 209.449 21.9512 224.508Z" fill="#CCCCCC"/>
<path id="Vector_21" d="M27.9373 221.271C39.116 232.153 40.4814 248.881 40.4814 248.881C40.4814 248.881 23.7226 247.966 12.544 237.084C1.36538 226.202 0 209.474 0 209.474C0 209.474 16.7587 210.389 27.9373 221.271Z" fill="#3F3D56"/>
<path id="Vector_22" d="M53.0254 221.271C41.8467 232.153 40.4814 248.881 40.4814 248.881C40.4814 248.881 57.2401 247.966 68.4187 237.084C79.5973 226.202 80.9627 209.474 80.9627 209.474C80.9627 209.474 64.204 210.389 53.0254 221.271Z" fill="#3F3D56"/>
</g>
<g id="book2">
<path id="Vector_23" d="M620.012 394.508C615.938 409.567 601.984 418.894 601.984 418.894C601.984 418.894 594.635 403.804 598.709 388.745C602.783 373.686 616.737 364.359 616.737 364.359C616.737 364.359 624.085 379.449 620.012 394.508Z" fill="#CCCCCC"/>
<path id="Vector_24" d="M582.951 394.508C587.025 409.567 600.979 418.894 600.979 418.894C600.979 418.894 608.327 403.804 604.254 388.745C600.18 373.686 586.226 364.359 586.226 364.359C586.226 364.359 578.877 379.449 582.951 394.508Z" fill="#CCCCCC"/>
<path id="Vector_25" d="M588.937 391.271C600.116 402.153 601.481 418.881 601.481 418.881C601.481 418.881 584.723 417.966 573.544 407.084C562.365 396.202 561 379.474 561 379.474C561 379.474 577.759 380.389 588.937 391.271Z" fill="#3F3D56"/>
<path id="Vector_26" d="M614.025 391.271C602.847 402.153 601.481 418.881 601.481 418.881C601.481 418.881 618.24 417.966 629.419 407.084C640.597 396.202 641.963 379.474 641.963 379.474C641.963 379.474 625.204 380.389 614.025 391.271Z" fill="#3F3D56"/>
</g>
</g>
<defs>
<clipPath id="clip0_2_2">
<rect width="641.963" height="598" fill="white"/>
</clipPath>
</defs>
</svg>
