<svg id="visual" viewBox="0 0 900 600" width="900" height="600" xmlns="http://www.w3.org/2000/svg" xmlns:xlink="http://www.w3.org/1999/xlink" version="1.1"><path d="M0 139L90 139L90 271L180 271L180 169L270 169L270 193L360 193L360 163L450 163L450 145L540 145L540 175L630 175L630 115L720 115L720 121L810 121L810 91L900 91L900 91L900 0L900 0L810 0L810 0L720 0L720 0L630 0L630 0L540 0L540 0L450 0L450 0L360 0L360 0L270 0L270 0L180 0L180 0L90 0L90 0L0 0Z" fill="#088eaf"></path><path d="M0 289L90 289L90 391L180 391L180 319L270 319L270 283L360 283L360 307L450 307L450 241L540 241L540 367L630 367L630 289L720 289L720 307L810 307L810 241L900 241L900 313L900 89L900 89L810 89L810 119L720 119L720 113L630 113L630 173L540 173L540 143L450 143L450 161L360 161L360 191L270 191L270 167L180 167L180 269L90 269L90 137L0 137Z" fill="#59a4bf"></path><path d="M0 391L90 391L90 457L180 457L180 367L270 367L270 337L360 337L360 421L450 421L450 313L540 313L540 427L630 427L630 397L720 397L720 391L810 391L810 343L900 343L900 379L900 311L900 239L810 239L810 305L720 305L720 287L630 287L630 365L540 365L540 239L450 239L450 305L360 305L360 281L270 281L270 317L180 317L180 389L90 389L90 287L0 287Z" fill="#87bacf"></path><path d="M0 433L90 433L90 487L180 487L180 433L270 433L270 391L360 391L360 469L450 469L450 385L540 385L540 457L630 457L630 481L720 481L720 445L810 445L810 391L900 391L900 451L900 377L900 341L810 341L810 389L720 389L720 395L630 395L630 425L540 425L540 311L450 311L450 419L360 419L360 335L270 335L270 365L180 365L180 455L90 455L90 389L0 389Z" fill="#b0d0df"></path><path d="M0 523L90 523L90 565L180 565L180 541L270 541L270 535L360 535L360 535L450 535L450 517L540 517L540 559L630 559L630 565L720 565L720 553L810 553L810 517L900 517L900 547L900 449L900 389L810 389L810 443L720 443L720 479L630 479L630 455L540 455L540 383L450 383L450 467L360 467L360 389L270 389L270 431L180 431L180 485L90 485L90 431L0 431Z" fill="#d8e8ef"></path><path d="M0 601L90 601L90 601L180 601L180 601L270 601L270 601L360 601L360 601L450 601L450 601L540 601L540 601L630 601L630 601L720 601L720 601L810 601L810 601L900 601L900 601L900 545L900 515L810 515L810 551L720 551L720 563L630 563L630 557L540 557L540 515L450 515L450 533L360 533L360 533L270 533L270 539L180 539L180 563L90 563L90 521L0 521Z" fill="#ffffff"></path></svg>