<svg id="visual" viewBox="0 0 900 600" width="900" height="600" xmlns="http://www.w3.org/2000/svg" xmlns:xlink="http://www.w3.org/1999/xlink" version="1.1"><path d="M0 79L13.7 73C27.3 67 54.7 55 82 59C109.3 63 136.7 83 163.8 91C191 99 218 95 245.2 89C272.3 83 299.7 75 327 72C354.3 69 381.7 71 409 79C436.3 87 463.7 101 491 109C518.3 117 545.7 119 573 120C600.3 121 627.7 121 654.8 113C682 105 709 89 736.2 79C763.3 69 790.7 65 818 73C845.3 81 872.7 101 886.3 111L900 121L900 0L886.3 0C872.7 0 845.3 0 818 0C790.7 0 763.3 0 736.2 0C709 0 682 0 654.8 0C627.7 0 600.3 0 573 0C545.7 0 518.3 0 491 0C463.7 0 436.3 0 409 0C381.7 0 354.3 0 327 0C299.7 0 272.3 0 245.2 0C218 0 191 0 163.8 0C136.7 0 109.3 0 82 0C54.7 0 27.3 0 13.7 0L0 0Z" fill="#7dddfd"></path><path d="M0 295L13.7 280C27.3 265 54.7 235 82 242C109.3 249 136.7 293 163.8 316C191 339 218 341 245.2 332C272.3 323 299.7 303 327 292C354.3 281 381.7 279 409 267C436.3 255 463.7 233 491 236C518.3 239 545.7 267 573 296C600.3 325 627.7 355 654.8 347C682 339 709 293 736.2 268C763.3 243 790.7 239 818 236C845.3 233 872.7 231 886.3 230L900 229L900 119L886.3 109C872.7 99 845.3 79 818 71C790.7 63 763.3 67 736.2 77C709 87 682 103 654.8 111C627.7 119 600.3 119 573 118C545.7 117 518.3 115 491 107C463.7 99 436.3 85 409 77C381.7 69 354.3 67 327 70C299.7 73 272.3 81 245.2 87C218 93 191 97 163.8 89C136.7 81 109.3 61 82 57C54.7 53 27.3 65 13.7 71L0 77Z" fill="#57d5fe"></path><path d="M0 433L13.7 404C27.3 375 54.7 317 82 311C109.3 305 136.7 351 163.8 381C191 411 218 425 245.2 429C272.3 433 299.7 427 327 425C354.3 423 381.7 425 409 403C436.3 381 463.7 335 491 321C518.3 307 545.7 325 573 356C600.3 387 627.7 431 654.8 428C682 425 709 375 736.2 359C763.3 343 790.7 361 818 369C845.3 377 872.7 375 886.3 374L900 373L900 227L886.3 228C872.7 229 845.3 231 818 234C790.7 237 763.3 241 736.2 266C709 291 682 337 654.8 345C627.7 353 600.3 323 573 294C545.7 265 518.3 237 491 234C463.7 231 436.3 253 409 265C381.7 277 354.3 279 327 290C299.7 301 272.3 321 245.2 330C218 339 191 337 163.8 314C136.7 291 109.3 247 82 240C54.7 233 27.3 263 13.7 278L0 293Z" fill="#00ccff"></path><path d="M0 529L13.7 501C27.3 473 54.7 417 82 408C109.3 399 136.7 437 163.8 462C191 487 218 499 245.2 503C272.3 507 299.7 503 327 506C354.3 509 381.7 519 409 495C436.3 471 463.7 413 491 395C518.3 377 545.7 399 573 426C600.3 453 627.7 485 654.8 485C682 485 709 453 736.2 441C763.3 429 790.7 437 818 437C845.3 437 872.7 429 886.3 425L900 421L900 371L886.3 372C872.7 373 845.3 375 818 367C790.7 359 763.3 341 736.2 357C709 373 682 423 654.8 426C627.7 429 600.3 385 573 354C545.7 323 518.3 305 491 319C463.7 333 436.3 379 409 401C381.7 423 354.3 421 327 423C299.7 425 272.3 431 245.2 427C218 423 191 409 163.8 379C136.7 349 109.3 303 82 309C54.7 315 27.3 373 13.7 402L0 431Z" fill="#00b0dc"></path><path d="M0 601L13.7 601C27.3 601 54.7 601 82 601C109.3 601 136.7 601 163.8 601C191 601 218 601 245.2 601C272.3 601 299.7 601 327 601C354.3 601 381.7 601 409 601C436.3 601 463.7 601 491 601C518.3 601 545.7 601 573 601C600.3 601 627.7 601 654.8 601C682 601 709 601 736.2 601C763.3 601 790.7 601 818 601C845.3 601 872.7 601 886.3 601L900 601L900 419L886.3 423C872.7 427 845.3 435 818 435C790.7 435 763.3 427 736.2 439C709 451 682 483 654.8 483C627.7 483 600.3 451 573 424C545.7 397 518.3 375 491 393C463.7 411 436.3 469 409 493C381.7 517 354.3 507 327 504C299.7 501 272.3 505 245.2 501C218 497 191 485 163.8 460C136.7 435 109.3 397 82 406C54.7 415 27.3 471 13.7 499L0 527Z" fill="#0095ba"></path></svg>